<svg xmlns="http://www.w3.org/2000/svg" viewBox="0 0 900 1600" role="img" aria-labelledby="title desc">
<title id="title">SOURFACEMUSIC cosmic story artwork</title><desc id="desc">Vertical red and black cosmic portal artwork with central S.F.M. branding and repeated mini marks.</desc>
<defs>
  <linearGradient id="bg" x1="0" y1="0" x2="0" y2="1"><stop stop-color="#010103"/><stop offset=".48" stop-color="#190008"/><stop offset="1" stop-color="#020204"/></linearGradient>
  <radialGradient id="portal"><stop stop-color="#fff9e9"/><stop offset=".1" stop-color="#ff8a68"/><stop offset=".34" stop-color="#e21b45"/><stop offset=".67" stop-color="#570014"/><stop offset="1" stop-color="#030004" stop-opacity="0"/></radialGradient>
  <filter id="glow"><feGaussianBlur stdDeviation="11" result="b"/><feMerge><feMergeNode in="b"/><feMergeNode in="SourceGraphic"/></feMerge></filter>
  <filter id="grain"><feTurbulence baseFrequency=".85" numOctaves="4" seed="9"/><feColorMatrix values="1 0 0 0 .35 0 .1 0 0 0 0 0 .1 0 0 0 0 0 .3 0"/></filter>
  <pattern id="marks" width="220" height="200" patternUnits="userSpaceOnUse"><text x="22" y="58" fill="#ff345c" fill-opacity=".24" font-family="Arial Black,Arial" font-size="28">S.F.M.</text></pattern>
</defs>
<rect width="900" height="1600" fill="url(#bg)"/><rect width="900" height="1600" fill="url(#marks)"/><rect width="900" height="1600" filter="url(#grain)" opacity=".55"/>
<text x="450" y="300" text-anchor="middle" fill="#120005" stroke="#ff4d6b" stroke-width="6" filter="url(#glow)" font-family="Arial Black,Arial" font-size="190" letter-spacing="8">S.F.M.</text>
<text x="450" y="385" text-anchor="middle" fill="#ffd2c1" font-family="Arial,Helvetica" font-size="33" font-weight="700" letter-spacing="14">SOUR FACE MUSIC</text>
<g transform="translate(450 990)"><circle r="360" fill="url(#portal)"/><circle r="245" fill="#020205" stroke="#ff3157" stroke-width="13" filter="url(#glow)"/><circle r="185" fill="none" stroke="#ffd2b6" stroke-width="3" stroke-dasharray="5 17" opacity=".72"/>
<path d="M0 250c-27 0-49-16-55-42l-20-82c-6-25 7-50 31-60l19-8-12-37c-7-26 9-53 36-59 28-6 55 12 60 40l7 44 22 8c25 9 39 35 33 60l-20 93c-6 25-29 41-55 41z" fill="#050508" stroke="#ff637a" stroke-width="5"/></g>
<g fill="#ff4265" font-family="Arial Black,Arial" font-size="25" opacity=".75"><text x="55" y="105">S.F.M.</text><text x="710" y="120">S.F.M.</text><text x="70" y="1490">S.F.M.</text><text x="705" y="1480">S.F.M.</text></g>
</svg>